<svg version="1.1" id="Layer_1" xmlns="http://www.w3.org/2000/svg" xmlns:xlink="http://www.w3.org/1999/xlink" x="0px" y="0px"
	 width="100%" viewBox="0 0 207 148" enable-background="new 0 0 207 148" xml:space="preserve">
<path fill="#000000" opacity="1.000000" stroke="none" 
	d="
M154.000000,149.000000 
	C102.702477,149.000000 51.904953,149.000000 1.053716,149.000000 
	C1.053716,99.737282 1.053716,50.474487 1.053716,1.105846 
	C69.880684,1.105846 138.761581,1.105846 207.821243,1.105846 
	C207.821243,50.332790 207.821243,99.666351 207.821243,149.000000 
	C190.141418,149.000000 172.320709,149.000000 154.000000,149.000000 
M155.907822,38.223854 
	C159.035767,34.108353 158.505356,32.250259 153.262802,27.550842 
	C142.810501,29.116438 135.935669,36.063148 128.875046,42.680222 
	C125.786362,45.574875 122.903763,48.688351 119.848495,51.620041 
	C117.121353,54.236866 114.267601,56.721218 111.503288,59.300022 
	C109.500916,61.168026 107.553429,63.094879 105.507118,65.067146 
	C94.076324,55.023457 83.263588,45.392284 72.285538,35.953384 
	C68.816620,32.970821 65.162331,29.957079 61.084534,28.037451 
	C59.153633,27.128479 55.953449,28.547052 53.486736,29.380144 
	C52.788803,29.615860 51.980419,31.865952 52.363655,32.578762 
	C54.721825,36.964882 56.788013,41.755898 60.124226,45.311787 
	C65.506981,51.048992 71.740173,56.001083 77.722450,61.159210 
	C83.054413,65.756615 88.533142,70.183815 93.973183,74.707825 
	C88.484741,80.451813 83.255112,86.437912 77.480995,91.842278 
	C69.701881,99.123253 61.470875,105.919586 53.503944,113.002800 
	C51.023380,115.208221 51.872009,120.304955 55.022640,120.611473 
	C59.380161,121.035408 64.411545,121.321411 68.152359,119.550224 
	C72.668015,117.412163 76.211594,113.143242 80.039978,109.647728 
	C87.896019,102.474731 95.768219,95.312698 103.406219,87.911324 
	C106.073700,85.326485 107.629547,86.108376 109.990669,88.223938 
	C120.212410,97.382591 130.556503,106.406799 140.958679,115.360741 
	C144.353302,118.282761 148.059219,120.843124 151.674789,123.608673 
	C157.159012,115.052620 156.649338,109.499413 150.079376,103.652451 
	C142.371262,96.792572 134.507111,90.108192 126.727242,83.328644 
	C123.672813,80.666954 120.663322,77.953712 117.435501,75.088295 
	C130.467743,62.710606 143.016449,50.792164 155.907822,38.223854 
z"/>
<path fill="#EC0D0E" opacity="1.000000" stroke="none" 
	d="
M155.736481,38.548790 
	C143.016449,50.792164 130.467743,62.710606 117.435501,75.088295 
	C120.663322,77.953712 123.672813,80.666954 126.727242,83.328644 
	C134.507111,90.108192 142.371262,96.792572 150.079376,103.652451 
	C156.649338,109.499413 157.159012,115.052620 151.674789,123.608673 
	C148.059219,120.843124 144.353302,118.282761 140.958679,115.360741 
	C130.556503,106.406799 120.212410,97.382591 109.990669,88.223938 
	C107.629547,86.108376 106.073700,85.326485 103.406219,87.911324 
	C95.768219,95.312698 87.896019,102.474731 80.039978,109.647728 
	C76.211594,113.143242 72.668015,117.412163 68.152359,119.550224 
	C64.411545,121.321411 59.380161,121.035408 55.022640,120.611473 
	C51.872009,120.304955 51.023380,115.208221 53.503944,113.002800 
	C61.470875,105.919586 69.701881,99.123253 77.480995,91.842278 
	C83.255112,86.437912 88.484741,80.451813 93.973183,74.707825 
	C88.533142,70.183815 83.054413,65.756615 77.722450,61.159210 
	C71.740173,56.001083 65.506981,51.048992 60.124226,45.311787 
	C56.788013,41.755898 54.721825,36.964882 52.363655,32.578762 
	C51.980419,31.865952 52.788803,29.615860 53.486736,29.380144 
	C55.953449,28.547052 59.153633,27.128479 61.084534,28.037451 
	C65.162331,29.957079 68.816620,32.970821 72.285538,35.953384 
	C83.263588,45.392284 94.076324,55.023457 105.507118,65.067146 
	C107.553429,63.094879 109.500916,61.168026 111.503288,59.300022 
	C114.267601,56.721218 117.121353,54.236866 119.848495,51.620041 
	C122.903763,48.688351 125.786362,45.574875 128.875046,42.680222 
	C135.935669,36.063148 142.810501,29.116438 153.262802,27.550842 
	C158.505356,32.250259 159.035767,34.108353 155.736481,38.548790 
z"/>
</svg>